<svg width="41" height="41" viewBox="0 0 41 41" fill="none" xmlns="http://www.w3.org/2000/svg">
<path d="M22.4113 0C32.6801 0 41 8.32753 41 18.6057C41 19.656 40.138 20.5188 39.0887 20.5188C38.0393 20.5188 37.1774 19.656 37.1774 18.6057C37.1774 10.4657 30.5814 3.86367 22.4488 3.86367C21.3994 3.86367 20.5375 3.00093 20.5375 1.95061C20.5375 0.90029 21.3994 0.0375194 22.4488 0.0375194L22.4113 0ZM23.0485 15.3797C24.4726 15.3797 25.5969 16.5426 25.5969 17.9305C25.5969 19.3184 24.4351 20.4812 23.0485 20.4812C21.6618 20.4812 20.5 19.3184 20.5 17.9305C20.5 16.5426 21.6618 15.3797 23.0485 15.3797ZM20.4625 9.60295C20.4625 8.55263 21.3245 7.68983 22.3738 7.68983C28.3702 7.68983 33.2797 12.5663 33.2797 18.6057C33.2797 19.656 32.4178 20.5188 31.3684 20.5188C30.319 20.5188 29.457 19.656 29.457 18.6057C29.457 14.7045 26.309 11.5535 22.4113 11.5535C21.362 11.5535 20.5 10.6908 20.5 9.64044L20.4625 9.60295ZM9.40675 0.11253C10.9433 -0.300096 12.5923 0.487644 13.1919 1.9881L16.3775 9.67793C16.9397 10.9908 16.5274 12.4913 15.4406 13.3916L11.5055 16.6176C14.1663 22.2443 18.7386 26.8207 24.3602 29.484L27.5832 25.5453C28.4826 24.4575 29.9817 24.0824 31.2934 24.6075L38.9763 27.796C40.4753 28.3961 41.2624 30.0467 40.8501 31.5847L38.9388 38.6368C38.564 40.0247 37.2898 41 35.8656 41C16.0402 41 0 24.9076 0 5.10159C0 3.67615 0.974368 2.40074 2.36102 2.02562L9.40675 0.11253Z" fill="#EF4E2C"/>
</svg>
