<svg width="40" height="39" viewBox="0 0 40 39" fill="none" xmlns="http://www.w3.org/2000/svg">
<path d="M20.0189 9.49573C14.329 9.49573 9.77706 13.9708 9.77706 19.4815C9.77706 24.9922 14.367 29.4673 20.0189 29.4673C25.6709 29.4673 30.2608 24.9922 30.2608 19.4815C30.2608 13.9708 25.6709 9.49573 20.0189 9.49573ZM20.0189 25.9908C16.3395 25.9908 13.3427 23.069 13.3427 19.4815C13.3427 15.894 16.3395 12.9723 20.0189 12.9723C23.6984 12.9723 26.6951 15.894 26.6951 19.4815C26.6951 23.069 23.6984 25.9908 20.0189 25.9908ZM33.0678 9.0889C33.0678 10.3834 32.0056 11.4189 30.678 11.4189C29.3504 11.4189 28.2882 10.3834 28.2882 9.0889C28.2882 7.79445 29.3504 6.7589 30.678 6.7589C32.0056 6.7589 33.0678 7.79445 33.0678 9.0889ZM39.8578 11.4559C39.706 8.34921 38.9853 5.57539 36.6335 3.28236C34.2816 0.989327 31.4746 0.286629 28.2504 0.138691C24.9502 -0.0462305 15.0498 -0.0462305 11.7496 0.138691C8.56329 0.286629 5.71837 0.989327 3.36655 3.28236C1.01472 5.57539 0.293978 8.31223 0.142247 11.4559C-0.0474158 14.6735 -0.0474158 24.3265 0.142247 27.5441C0.293978 30.6508 1.01472 33.4246 3.36655 35.7177C5.71837 38.0107 8.52536 38.7134 11.7496 38.8613C15.0498 39.0462 24.9502 39.0462 28.2504 38.8613C31.4367 38.7134 34.2816 38.0107 36.6335 35.7177C38.9853 33.4246 39.706 30.6878 39.8578 27.5441C40.0474 24.3265 40.0474 14.7105 39.8578 11.4929V11.4559ZM35.6093 30.9837C34.9265 32.685 33.561 34.0164 31.816 34.6821C29.1987 35.7177 22.9397 35.4588 20.0189 35.4588C17.0981 35.4588 10.8772 35.6807 8.22192 34.6821C6.47702 34.0164 5.11145 32.685 4.42866 30.9837C3.36654 28.4318 3.63199 22.3293 3.63199 19.4815C3.63199 16.6337 3.40448 10.5683 4.42866 7.97936C5.11145 6.27808 6.47702 4.94664 8.22192 4.28092C10.8393 3.24536 17.0981 3.50426 20.0189 3.50426C22.9397 3.50426 29.1608 3.28235 31.816 4.28092C33.561 4.94664 34.9265 6.27808 35.6093 7.97936C36.6714 10.5313 36.4059 16.6337 36.4059 19.4815C36.4059 22.3293 36.6335 28.3948 35.6093 30.9837Z" fill="#EF4E2C"/>
</svg>
