<svg width="42" height="41" viewBox="0 0 42 41" fill="none" xmlns="http://www.w3.org/2000/svg">
<path d="M9.39269 41H0.687245V13.6045H9.39269V41ZM5.04003 9.87725C2.25276 9.87725 0 7.64088 0 4.91997C0 2.19906 2.25276 0 5.04003 0C7.8273 0 10.0801 2.19906 10.0801 4.91997C10.0801 7.64088 7.8273 9.87725 5.04003 9.87725ZM42 41H33.2945V27.6564C33.2945 24.4882 33.2182 20.3881 28.7509 20.3881C24.2836 20.3881 23.52 23.8545 23.52 27.3954V40.9627H14.8146V13.5673H23.1764V17.2945H23.2909C24.4364 15.1327 27.3 12.8591 31.5382 12.8591C40.3582 12.8591 41.9618 18.5245 41.9618 25.9045V40.9627L42 41Z" fill="#EF4E2C"/>
</svg>
