<svg width="41" height="41" viewBox="0 0 41 41" fill="none" xmlns="http://www.w3.org/2000/svg">
<path d="M39.8806 0.414546C40.7068 0.977106 41.1198 1.9522 40.9696 2.92731L35.8252 36.2684C35.7125 37.056 35.2243 37.7311 34.5484 38.1061C33.8725 38.4811 33.0464 38.5562 32.2954 38.2186L22.72 34.2432L17.2376 40.1688C16.5241 40.9564 15.3976 41.2189 14.4213 40.8064C13.445 40.3939 12.8067 39.4563 12.8067 38.4061V31.6929C12.8067 31.3554 12.9193 31.0553 13.1446 30.8303L26.5877 16.2038C27.0383 15.7162 27.0383 14.9286 26.5877 14.4411C26.1371 13.9535 25.311 13.916 24.8228 14.4035L8.52589 28.8801L1.42883 25.3548C0.565166 24.9422 0.0394394 24.0796 0.00188885 23.142C-0.0356617 22.2044 0.490033 21.3043 1.27859 20.8542L37.2145 0.339522C38.0782 -0.14803 39.1296 -0.110474 39.9557 0.452087L39.8806 0.414546Z" fill="#EF4E2C"/>
</svg>
