<?xml version="1.0" encoding="UTF-8"?>
<svg id="Layer_1" xmlns="http://www.w3.org/2000/svg" xmlns:xlink="http://www.w3.org/1999/xlink" version="1.1" viewBox="0 0 566.93 219.24">
  <!-- Generator: Adobe Illustrator 29.7.1, SVG Export Plug-In . SVG Version: 2.1.1 Build 8)  -->
  <defs>
    <style>
      .st0, .st1 {
        fill: none;
      }

      .st2 {
        fill: #e8dad0;
      }

      .st2, .st3 {
        opacity: .35;
      }

      .st3 {
        fill: #ecdad0;
      }

      .st4 {
        clip-path: url(#clippath-1);
      }

      .st1 {
        stroke: #f0502b;
        stroke-width: .25px;
      }

      .st5 {
        clip-path: url(#clippath);
      }
    </style>
    <clipPath id="clippath">
      <rect class="st0" x="198.67" y="-1.35" width="368.26" height="220.35"/>
    </clipPath>
    <clipPath id="clippath-1">
      <rect class="st0" x="-1" y="-1.62" width="282.87" height="222.48"/>
    </clipPath>
  </defs>
  <g class="st5">
    <path class="st1" d="M920.85-33.68c-132.68-37.74-164.86-12.68-332.26,62.9C456.51,88.86,317.43-7.09,283.01-29.98c-28.28-20.14-107.79-86.64-158.98-21.37,21.02-5.2,44.9-41.5,106.08-16.04,108.73,45.24,93.47,56.23,174.35,102.04,69.11,39.15,141.71,47.7,240.25-3.51,122.45-63.62,207.44-114.55,274.09-87.52l2.06,22.71Z"/>
    <path class="st3" d="M134.09-218.85S184.82,20.13,394.87,20.52c210.05.39,132.09,356.44,231.82,428.11l232.86-161.73L345.58-356.54l-211.49,137.7Z"/>
    <path class="st3" d="M198.87-266.93S184.82,20.13,394.87,20.52c210.05.39,224.26,282.82,323.98,354.49l132.48-82.06L337.36-350.49l-138.49,83.56Z"/>
  </g>
  <g class="st4">
    <path class="st2" d="M-157.29,8.51S22.53-12.39,101.47,140.49c78.94,152.87,305.74,33.99,395.29,79.81l-31.94,158.22L-196.37,245.02-157.29,8.51Z"/>
  </g>
</svg>