<svg width="29" height="41" viewBox="0 0 29 41" fill="none" xmlns="http://www.w3.org/2000/svg">
<path d="M0 2.13584V36.0465C0 37.1706 0.888864 38.07 1.99997 38.07C2.55553 38.07 3.1111 37.8076 3.51851 37.3955L11 28.7398L16.2593 39.3815C16.963 40.8428 18.7037 41.4048 20.1482 40.6929C21.5926 39.9809 22.1481 38.2198 21.4444 36.7585L16.3333 26.3417H27C28.1111 26.3417 29 25.4424 29 24.3183C29 23.7563 28.7407 23.1942 28.3333 22.8195L3.55552 0.524584C3.18515 0.18735 2.66667 0 2.14815 0C1.00001 0 0.0370167 0.936788 0.0370167 2.13584H0Z" fill="#EF4E2C"/>
</svg>
